name rise32.9588peak41.5061fall63.4684.mot
datacolumns 19
datarows 15
range 4.11665900000000 4.13998800000000
endheader
time	ground_force1_vx	ground_force1_vy	ground_force1_vz	ground_force1_px	ground_force1_py	ground_force1_pz	ground_force2_vx	ground_force2_vy	ground_force2_vz	ground_force2_px	ground_force2_py	ground_force2_pz	ground_torque1_x	ground_torque1_y	ground_torque1_z	ground_torque2_x	ground_torque2_y	ground_torque2_z	
4.11665900000000	-34.76123400000000	799.23197300000004	36.62075700000000	0.10916000000000	0.00000000000000	0.07990900000000	0.00000000000000	0.00000000000000	0.00000000000000	0.00000000000000	0.00000000000000	0.00000000000000	0.00000000000000	12.88704000000000	0.00000000000000	0.00000000000000	0.00000000000000	0.00000000000000	
4.11831900000000	-35.41739900000000	797.78408600000000	36.49757800000000	0.10823900000000	0.00000000000000	0.07984800000000	-1.42631300000000	3.79232100000000	0.75885400000000	0.00000000000000	0.00000000000000	0.00000000000000	0.00000000000000	12.83357700000000	0.00000000000000	0.00000000000000	0.17781900000000	0.00000000000000	
4.11998100000000	-36.09680600000000	796.23297300000002	36.36748500000000	0.10731500000000	0.00000000000000	0.07978700000000	-2.28372300000000	7.28885600000000	1.31023300000000	0.00000000000000	0.00000000000000	0.00000000000000	0.00000000000000	12.78328700000000	0.00000000000000	0.00000000000000	0.32222900000000	0.00000000000000	
4.12166400000000	-36.79952000000000	794.57610799999998	36.23016900000000	0.10638700000000	0.00000000000000	0.07972500000000	-3.25368500000000	11.51139400000000	1.95398100000000	0.00000000000000	0.00000000000000	0.00000000000000	0.00000000000000	12.73623300000000	0.00000000000000	0.00000000000000	0.49351400000000	0.00000000000000	
4.12331700000000	-37.52552500000000	792.81093499999997	36.08531900000000	0.10545500000000	0.00000000000000	0.07966200000000	-4.30679700000000	16.41464100000000	2.67650400000000	0.00000000000000	0.00000000000000	0.00000000000000	0.00000000000000	12.69247100000000	0.00000000000000	0.00000000000000	0.68883800000000	0.00000000000000	
4.12498400000000	-38.27471400000000	790.93486199999995	35.93262900000000	0.10452200000000	0.00000000000000	0.07959900000000	-5.40628100000000	21.92127300000000	3.45918500000000	0.00000000000000	0.00000000000000	0.00000000000000	0.00000000000000	12.65203900000000	0.00000000000000	0.00000000000000	0.90402000000000	0.00000000000000	
4.12665900000000	-39.04688900000000	788.94526900000005	35.77179400000000	0.10358600000000	0.00000000000000	0.07953400000000	-6.51038800000000	27.92778300000000	4.27961600000000	0.31968400000000	0.00000000000000	-0.06975300000000	0.00000000000000	12.61496500000000	0.00000000000000	0.00000000000000	2.04781400000000	0.00000000000000	
4.12831700000000	-39.84176000000000	786.83950400000003	35.60251200000000	0.10264800000000	0.00000000000000	0.07946900000000	-7.57542400000000	34.31316800000000	5.11325900000000	0.32297200000000	0.00000000000000	-0.07032300000000	0.00000000000000	12.58126300000000	0.00000000000000	0.00000000000000	2.49100200000000	0.00000000000000	
4.12998500000000	-40.65893800000000	784.61488999999995	35.42449100000000	0.10170900000000	0.00000000000000	0.07940200000000	-8.55902000000000	40.94933900000000	5.93532500000000	0.32599600000000	0.00000000000000	-0.07083300000000	0.00000000000000	12.55093200000000	0.00000000000000	0.00000000000000	2.94196700000000	0.00000000000000	
4.13165800000000	-41.49793800000000	782.26872300000002	35.23744000000000	0.10076900000000	0.00000000000000	0.07933500000000	-9.42320300000000	47.71174000000000	6.72260900000000	0.32879100000000	0.00000000000000	-0.07129300000000	0.00000000000000	12.52395700000000	0.00000000000000	0.00000000000000	3.38960700000000	0.00000000000000	
4.13331900000000	-42.35817200000000	779.79827899999998	35.04108000000000	0.09982900000000	0.00000000000000	0.07926700000000	-10.13687700000000	54.48878000000000	7.45504900000000	0.33138500000000	0.00000000000000	-0.07171000000000	0.00000000000000	12.50031000000000	0.00000000000000	0.00000000000000	3.82388600000000	0.00000000000000	
4.13498500000000	-43.23895100000000	777.20081500000003	34.83514100000000	0.09888900000000	0.00000000000000	0.07919800000000	-10.67746300000000	61.18908500000000	8.11684700000000	0.33380200000000	0.00000000000000	-0.07209100000000	0.00000000000000	12.47994600000000	0.00000000000000	0.00000000000000	4.23643700000000	0.00000000000000	
4.13665400000000	-44.13948100000000	774.47357299999999	34.61936200000000	0.09794900000000	0.00000000000000	0.07912700000000	-11.03163200000000	67.74604800000000	8.69708300000000	0.33606100000000	0.00000000000000	-0.07244200000000	0.00000000000000	12.46280600000000	0.00000000000000	0.00000000000000	4.62094000000000	0.00000000000000	
4.13831400000000	-45.05886400000000	771.61378700000000	34.39349600000000	0.09701100000000	0.00000000000000	0.07905600000000	-11.19516800000000	74.11964399999999	9.18984200000000	0.33817800000000	0.00000000000000	-0.07276600000000	0.00000000000000	12.44881700000000	0.00000000000000	0.00000000000000	4.97328100000000	0.00000000000000	
4.13998800000000	-45.99609600000000	768.61868600000003	34.15730600000000	0.09607300000000	0.00000000000000	0.07898300000000	-11.17211900000000	80.29575000000000	9.59390400000000	0.34016600000000	0.00000000000000	-0.07306800000000	0.00000000000000	12.43788800000000	0.00000000000000	0.00000000000000	5.29149700000000	0.00000000000000	
